<svg viewBox="0 0 512 512" fill="none" xmlns="http://www.w3.org/2000/svg">
<path fill-rule="evenodd" clip-rule="evenodd" d="M160.861 54.3257C165.301 49.8914 172.499 49.8914 176.939 54.3257L213.587 90.9285L246.418 58.1386C250.543 54.0183 257.232 54.0183 261.357 58.1386C265.482 62.2588 265.482 68.939 261.357 73.0592L238.981 95.4071C263.925 95.5483 290.436 96.6762 312.797 99.8259C335.534 103.028 383.445 127.402 385.882 190.663C386.065 195.418 385.996 200.592 385.935 205.168V205.169C385.908 207.247 385.882 209.203 385.882 210.939C385.882 235.271 347.032 238.515 345.279 210.939C344.044 191.513 318.481 156.599 277.879 156.599H211.29C173.617 156.599 143.078 187.101 143.078 224.727V289.611C143.078 327.237 173.617 357.739 211.29 357.739H277.879C285.375 357.739 301.07 357.348 308.737 355.306C345.279 345.573 376.949 386.937 338.783 408.024C325.831 415.18 310.466 416.59 293.92 418.108C289.725 418.493 285.454 418.885 281.127 419.379C265.712 421.14 237.068 421.27 210.749 420.902L198.297 435.6L177.11 458.22C175.567 459.868 173.587 461.043 171.401 461.609C162.849 463.823 154.944 456.294 156.754 447.657L157.999 441.716C159.291 435.552 156.761 429.214 151.576 425.629L141.597 418.729C93.965 413.178 57 372.738 57 323.675V193.907C57 141.052 99.9011 98.2037 152.822 98.2037C152.822 98.2037 166.47 97.1728 186.869 96.3594L160.861 70.3836C156.421 65.9494 156.421 58.76 160.861 54.3257Z" fill="url(#paint0_linear_1811_214)"/>
<path fill-rule="evenodd" clip-rule="evenodd" d="M160.861 54.3257C165.301 49.8914 172.499 49.8914 176.939 54.3257L213.587 90.9285L246.418 58.1386C250.543 54.0183 257.232 54.0183 261.357 58.1386C265.482 62.2588 265.482 68.939 261.357 73.0592L238.981 95.4071C263.925 95.5483 290.436 96.6762 312.797 99.8259C335.534 103.028 383.445 127.402 385.882 190.663C386.065 195.418 385.996 200.592 385.935 205.168V205.169C385.908 207.247 385.882 209.203 385.882 210.939C385.882 235.271 347.032 238.515 345.279 210.939C344.044 191.513 318.481 156.599 277.879 156.599H211.29C173.617 156.599 143.078 187.101 143.078 224.727V289.611C143.078 327.237 173.617 357.739 211.29 357.739H277.879C285.375 357.739 301.07 357.348 308.737 355.306C345.279 345.573 376.949 386.937 338.783 408.024C325.831 415.18 310.466 416.59 293.92 418.108C289.725 418.493 285.454 418.885 281.127 419.379C265.712 421.14 237.068 421.27 210.749 420.902L198.297 435.6L177.11 458.22C175.567 459.868 173.587 461.043 171.401 461.609C162.849 463.823 154.944 456.294 156.754 447.657L157.999 441.716C159.291 435.552 156.761 429.214 151.576 425.629L141.597 418.729C93.965 413.178 57 372.738 57 323.675V193.907C57 141.052 99.9011 98.2037 152.822 98.2037C152.822 98.2037 166.47 97.1728 186.869 96.3594L160.861 70.3836C156.421 65.9494 156.421 58.76 160.861 54.3257Z" fill="url(#paint1_radial_1811_214)" fill-opacity="0.31"/>
<path d="M145 225.536C145 188.237 175.295 158 212.667 158H280.333C317.705 158 348 188.237 348 225.536V291.464C348 328.763 317.705 359 280.333 359H212.667C175.295 359 145 328.763 145 291.464V225.536Z" fill="url(#paint2_radial_1811_214)"/>
<path d="M336.88 333.196L289.058 250.506C285.564 244.463 286.596 236.821 291.569 231.923C297.625 225.958 307.378 226.067 313.3 232.165L339.459 259.101C348.971 268.896 364.21 270.277 375.327 262.35L455.623 205.1C461.017 201.254 468.174 200.963 473.863 204.359C482.866 209.733 484.742 221.982 477.76 229.806L381.423 337.762C368.893 351.804 346.302 349.488 336.88 333.196Z" fill="url(#paint3_radial_1811_214)"/>
<defs>
<linearGradient id="paint0_linear_1811_214" x1="313.609" y1="95.7707" x2="221.714" y2="462.054" gradientUnits="userSpaceOnUse">
<stop stop-color="#FFDF6C"/>
<stop offset="0.704" stop-color="#E84622"/>
<stop offset="1" stop-color="#EE2051"/>
</linearGradient>
<radialGradient id="paint1_radial_1811_214" cx="0" cy="0" r="1" gradientUnits="userSpaceOnUse" gradientTransform="translate(259.201 270.957) rotate(137.482) scale(134.411 140.407)">
<stop/>
<stop offset="1" stop-opacity="0"/>
</radialGradient>
<radialGradient id="paint2_radial_1811_214" cx="0" cy="0" r="1" gradientUnits="userSpaceOnUse" gradientTransform="translate(152.25 350.96) rotate(-44.0401) scale(216.278 179.924)">
<stop offset="0.090818" stop-color="#FFC0AD"/>
<stop offset="0.640581" stop-color="#FFEDAD" stop-opacity="0.69"/>
<stop offset="1" stop-color="white"/>
<stop offset="1.0001" stop-color="white" stop-opacity="0"/>
</radialGradient>
<radialGradient id="paint3_radial_1811_214" cx="0" cy="0" r="1" gradientUnits="userSpaceOnUse" gradientTransform="translate(372.54 207.713) rotate(107.1) scale(165.873 206.104)">
<stop stop-color="#59FFEB"/>
<stop offset="1" stop-color="#0020C7"/>
</radialGradient>
</defs>
</svg>
